<svg version="1.1" xmlns="http://www.w3.org/2000/svg" viewBox="0 0 735.0001220703125 344.8000030517578" width="735.0001220703125" height="344.8000030517578" filter="invert(93%) hue-rotate(180deg)">
  <!-- svg-source:excalidraw -->
  
  <defs>
    <style class="style-fonts">
      @font-face {
        font-family: "Virgil";
        src: url("https://excalidraw.com/Virgil.woff2");
      }
      @font-face {
        font-family: "Cascadia";
        src: url("https://excalidraw.com/Cascadia.woff2");
      }
    </style>
  </defs>
  <rect x="0" y="0" width="735.0001220703125" height="344.8000030517578" fill="#ffffff"></rect><g stroke-linecap="round" transform="translate(10 10) rotate(0 78.80001831054688 47.999977111816406)"><path d="M24 0 M24 0 C57.06 -0.79, 92.25 -1.49, 133.6 0 M24 0 C56.35 1.1, 86.86 0.8, 133.6 0 M133.6 0 C148.12 -0.34, 156.77 9.73, 157.6 24 M133.6 0 C151.63 -1.9, 157.52 6.16, 157.6 24 M157.6 24 C157.37 35.34, 158.69 46.44, 157.6 72 M157.6 24 C157.88 42.54, 156.87 60.46, 157.6 72 M157.6 72 C159.25 88.74, 150.74 95.51, 133.6 96 M157.6 72 C157.25 88.63, 148.2 98.2, 133.6 96 M133.6 96 C93.49 96.11, 54.07 98.58, 24 96 M133.6 96 C95.01 95.04, 57.1 95.59, 24 96 M24 96 C7.24 97.68, 1.69 89.3, 0 72 M24 96 C8.32 98.26, -1.99 89.06, 0 72 M0 72 C-1.16 62.41, 1.9 50.95, 0 24 M0 72 C1.32 57.6, 0.35 44.76, 0 24 M0 24 C-0.76 6.6, 6.09 -1.08, 24 0 M0 24 C0.1 8.13, 8.35 0.73, 24 0" stroke="#364fc7" stroke-width="1" fill="none"></path></g><g transform="translate(36.4000244140625 22.600006103515625) rotate(0 54 37)"><text x="0" y="17.666666666666668" font-family="Virgil, Segoe UI Emoji" font-size="20px" fill="#364fc7" text-anchor="start" style="white-space: pre;" direction="ltr">Label: 'X'</text><text x="0" y="42.333333333333336" font-family="Virgil, Segoe UI Emoji" font-size="20px" fill="#364fc7" text-anchor="start" style="white-space: pre;" direction="ltr">Data: 2.0</text><text x="0" y="67" font-family="Virgil, Segoe UI Emoji" font-size="20px" fill="#364fc7" text-anchor="start" style="white-space: pre;" direction="ltr">Grad: 3.0 </text></g><g stroke-linecap="round" transform="translate(11.449981689453125 185.74994659423828) rotate(0 78.80001831054688 42.39997863769531)"><path d="M21.2 0 M21.2 0 C44.22 -1.29, 69.35 -1.61, 136.4 0 M21.2 0 C51.01 1.19, 80.71 0.32, 136.4 0 M136.4 0 C150.84 1.01, 156.86 7.23, 157.6 21.2 M136.4 0 C150.85 1.24, 157.44 6.14, 157.6 21.2 M157.6 21.2 C155.56 30.48, 158.42 39.4, 157.6 63.6 M157.6 21.2 C158.04 36.45, 157.65 51.77, 157.6 63.6 M157.6 63.6 C155.97 78.47, 150.56 83.22, 136.4 84.8 M157.6 63.6 C156.83 78.79, 152.81 86.54, 136.4 84.8 M136.4 84.8 C107.44 84.39, 76.08 86.69, 21.2 84.8 M136.4 84.8 C99.23 85.86, 62.39 85.59, 21.2 84.8 M21.2 84.8 C6.52 84.86, -1.41 77.44, 0 63.6 M21.2 84.8 C4.8 86.16, -1.55 79.54, 0 63.6 M0 63.6 C0.71 50.9, 0.68 35.75, 0 21.2 M0 63.6 C0.95 54.16, -0.52 45.3, 0 21.2 M0 21.2 C0.56 8.45, 6.72 1.74, 21.2 0 M0 21.2 C-1.43 8.08, 7 1.93, 21.2 0" stroke="#364fc7" stroke-width="1" fill="none"></path></g><g transform="translate(38.650054931640625 192.74994659423828) rotate(0 54 37)"><text x="0" y="17.666666666666668" font-family="Virgil, Segoe UI Emoji" font-size="20px" fill="#364fc7" text-anchor="start" style="white-space: pre;" direction="ltr">Label: 'W'</text><text x="0" y="42.333333333333336" font-family="Virgil, Segoe UI Emoji" font-size="20px" fill="#364fc7" text-anchor="start" style="white-space: pre;" direction="ltr">Data: 3.0</text><text x="0" y="67" font-family="Virgil, Segoe UI Emoji" font-size="20px" fill="#364fc7" text-anchor="start" style="white-space: pre;" direction="ltr">Grad: 2.0 </text></g><g stroke-linecap="round" transform="translate(180.40005493164062 103.60003662109375) rotate(0 41.600006103515625 38.79998779296875)"><path d="M52.5 9.75 M52.5 9.75 C57.27 16.76, 67.03 21.08, 72.7 29.25 M52.5 9.75 C57.21 15.23, 61.54 18.93, 72.7 29.25 M72.7 29.25 C83.73 37.54, 82.12 39.68, 72.7 48.75 M72.7 29.25 C82.71 40.17, 83.44 39.94, 72.7 48.75 M72.7 48.75 C65.73 52.73, 61.78 61.31, 52.5 67.85 M72.7 48.75 C68.06 53.27, 63.31 57.59, 52.5 67.85 M52.5 67.85 C42.02 76.12, 40.77 79.35, 31.5 67.85 M52.5 67.85 C40.2 77.81, 41.9 76.33, 31.5 67.85 M31.5 67.85 C24.22 63.95, 20.72 57.41, 10.5 48.75 M31.5 67.85 C27.56 62.83, 21.95 58.36, 10.5 48.75 M10.5 48.75 C-0.84 37.87, 0.73 40.94, 10.5 29.25 M10.5 48.75 C-1.22 40.33, -0.16 38.32, 10.5 29.25 M10.5 29.25 C15.78 23.33, 22.27 20.11, 31.5 9.75 M10.5 29.25 C15.56 24.51, 21.46 20.27, 31.5 9.75 M31.5 9.75 C43.53 0.42, 40.08 -0.6, 52.5 9.75 M31.5 9.75 C39.75 1.61, 40.48 1.31, 52.5 9.75" stroke="#087f5b" stroke-width="1" fill="none"></path></g><g transform="translate(213.00006103515625 124.9000244140625) rotate(0 9 17.5)"><text x="9" y="24" font-family="Virgil, Segoe UI Emoji" font-size="28px" fill="#087f5b" text-anchor="middle" style="white-space: pre;" direction="ltr">X</text></g><g stroke-linecap="round"><g transform="translate(169.20004272460938 229.199951171875) rotate(0 26.627761309114305 -23.329006516933447)"><path d="M0.84 0.09 C6.82 -1.2, 28.2 0.31, 36.97 -7.5 C45.73 -15.3, 50.8 -40.3, 53.44 -46.75 M-0.18 -0.91 C6.11 -2.11, 30.55 0.99, 39.35 -6.53 C48.14 -14.06, 50.38 -39.55, 52.59 -46.04" stroke="#087f5b" stroke-width="1" fill="none"></path></g><g transform="translate(169.20004272460938 229.199951171875) rotate(0 26.627761309114305 -23.329006516933447)"><path d="M55.58 -26.11 C52.46 -33.44, 51.27 -42.67, 51.55 -47.92 M54.63 -25.15 C54.55 -33.67, 53.27 -41.24, 52.23 -46.89" stroke="#087f5b" stroke-width="1" fill="none"></path></g><g transform="translate(169.20004272460938 229.199951171875) rotate(0 26.627761309114305 -23.329006516933447)"><path d="M41.43 -29.19 C43.8 -35.43, 48.1 -43.46, 51.55 -47.92 M40.48 -28.23 C45.56 -35.7, 49.48 -42.14, 52.23 -46.89" stroke="#087f5b" stroke-width="1" fill="none"></path></g></g><mask></mask><g stroke-linecap="round"><g transform="translate(169.53209991631627 49.86919915994616) rotate(0 26.86186917931974 25.070523260538522)"><path d="M-1.16 1.13 C6.79 2.99, 37.15 3.18, 46.5 11.24 C55.84 19.29, 53.52 43.25, 54.88 49.47 M0.43 0.67 C8.29 2.19, 36.4 1.7, 45.35 9.49 C54.3 17.28, 52.55 40.75, 54.13 47.41" stroke="#087f5b" stroke-width="1" fill="none"></path></g><g transform="translate(169.53209991631627 49.86919915994616) rotate(0 26.86186917931974 25.070523260538522)"><path d="M47.58 29.07 C48.59 33.34, 49.99 36.53, 53.49 48.82 M44.85 29.71 C47.91 35.12, 50.44 40.46, 54.36 47.11" stroke="#087f5b" stroke-width="1" fill="none"></path></g><g transform="translate(169.53209991631627 49.86919915994616) rotate(0 26.86186917931974 25.070523260538522)"><path d="M60.94 27.83 C59.27 32.22, 57.99 35.66, 53.49 48.82 M58.21 28.47 C57.03 34.2, 55.33 39.94, 54.36 47.11" stroke="#087f5b" stroke-width="1" fill="none"></path></g></g><mask></mask><g stroke-linecap="round" transform="translate(284.800048828125 250.0000457763672) rotate(0 78.80001831054688 42.39997863769531)"><path d="M21.2 0 M21.2 0 C51.14 0.36, 78.34 -0.49, 136.4 0 M21.2 0 C48.82 -1.01, 74.47 0.19, 136.4 0 M136.4 0 C150.52 1.42, 156.78 7.87, 157.6 21.2 M136.4 0 C152.69 2, 155.42 4.97, 157.6 21.2 M157.6 21.2 C156.51 38.45, 159.58 53.91, 157.6 63.6 M157.6 21.2 C158.57 31.14, 157.84 40.77, 157.6 63.6 M157.6 63.6 C157.67 78.69, 150.98 82.93, 136.4 84.8 M157.6 63.6 C158.08 77.07, 149.61 85.49, 136.4 84.8 M136.4 84.8 C93.86 84.45, 50.26 83.69, 21.2 84.8 M136.4 84.8 C90.48 86.28, 44.78 85.6, 21.2 84.8 M21.2 84.8 C9.06 85.31, -0.16 79.14, 0 63.6 M21.2 84.8 C7.56 83.58, -2.11 78.51, 0 63.6 M0 63.6 C0.35 52.54, 0.56 41.39, 0 21.2 M0 63.6 C-0.63 48.02, -0.72 32.01, 0 21.2 M0 21.2 C-0.73 9.04, 5.62 -0.14, 21.2 0 M0 21.2 C0.91 5.7, 8.88 0.27, 21.2 0" stroke="#364fc7" stroke-width="1" fill="none"></path></g><g transform="translate(312.0001220703125 257.8000946044922) rotate(0 50 37)"><text x="0" y="17.666666666666668" font-family="Virgil, Segoe UI Emoji" font-size="20px" fill="#364fc7" text-anchor="start" style="white-space: pre;" direction="ltr">Label: 'b'</text><text x="0" y="42.333333333333336" font-family="Virgil, Segoe UI Emoji" font-size="20px" fill="#364fc7" text-anchor="start" style="white-space: pre;" direction="ltr">Data: 5.0</text><text x="0" y="67" font-family="Virgil, Segoe UI Emoji" font-size="20px" fill="#364fc7" text-anchor="start" style="white-space: pre;" direction="ltr">Grad: 1.0 </text></g><g stroke-linecap="round" transform="translate(440.01388943703114 170.95067755334685) rotate(0 41.600006103515625 38.79998779296875)"><path d="M52.5 9.75 M52.5 9.75 C58.02 12.72, 61.89 18.54, 72.7 29.25 M52.5 9.75 C59.46 17.19, 68.68 24.55, 72.7 29.25 M72.7 29.25 C81.85 40.72, 82.78 39.71, 72.7 48.75 M72.7 29.25 C84.82 37.79, 84.89 39.09, 72.7 48.75 M72.7 48.75 C68.69 52.9, 64.02 56.86, 52.5 67.85 M72.7 48.75 C65.82 55.6, 59.11 62.04, 52.5 67.85 M52.5 67.85 C43.17 78.32, 40.83 76.58, 31.5 67.85 M52.5 67.85 C41.91 77.16, 43.11 75.41, 31.5 67.85 M31.5 67.85 C26.91 62.42, 23.77 61.79, 10.5 48.75 M31.5 67.85 C25.23 61.35, 18.32 56.24, 10.5 48.75 M10.5 48.75 C0.63 39.98, 0.12 39.64, 10.5 29.25 M10.5 48.75 C-1.57 41.01, 2.15 40.81, 10.5 29.25 M10.5 29.25 C19.5 22.78, 26.89 16.26, 31.5 9.75 M10.5 29.25 C16.61 24.69, 22.19 18.66, 31.5 9.75 M31.5 9.75 C43.49 0.46, 43.59 0.96, 52.5 9.75 M31.5 9.75 C41.26 -0.09, 41.64 -1.83, 52.5 9.75" stroke="#087f5b" stroke-width="1" fill="none"></path></g><g transform="translate(469.61389554054676 186.7506653463156) rotate(0 12 23)"><text x="12" y="32" font-family="Virgil, Segoe UI Emoji" font-size="36px" fill="#087f5b" text-anchor="middle" style="white-space: pre;" direction="ltr">+</text></g><g stroke-linecap="round"><g transform="translate(444.81387723 291.6890531649301) rotate(0 18.912280663130332 -20.30766608409928)"><path d="M-0.83 0.39 C3.98 -0.88, 21.54 -0.32, 28.12 -6.91 C34.7 -13.49, 37.25 -33.61, 38.65 -39.1 M0.93 -0.45 C5.66 -2.09, 21 -1.73, 27.24 -8.49 C33.48 -15.25, 36.87 -35.97, 38.36 -41.01" stroke="#087f5b" stroke-width="1" fill="none"></path></g><g transform="translate(444.81387723 291.6890531649301) rotate(0 18.912280663130332 -20.30766608409928)"><path d="M40.86 -24.23 C41.19 -27.13, 40.45 -34.01, 38.45 -40.28 M40.14 -24.1 C40.45 -29.62, 39.92 -33.94, 37.8 -41.35" stroke="#087f5b" stroke-width="1" fill="none"></path></g><g transform="translate(444.81387723 291.6890531649301) rotate(0 18.912280663130332 -20.30766608409928)"><path d="M29.73 -26.86 C32.74 -29.05, 34.66 -35.3, 38.45 -40.28 M29.01 -26.73 C32.52 -31.58, 35.19 -35.15, 37.8 -41.35" stroke="#087f5b" stroke-width="1" fill="none"></path></g></g><mask></mask><g stroke-linecap="round"><g transform="translate(522.7806360894656 210.00227172303937) rotate(0 22.721925004677416 0.5827661897955352)"><path d="M0.03 0.56 C3.75 0.71, 13.43 0.72, 21.24 0.95 C29.04 1.17, 42.6 2.01, 46.86 1.9 M-1.41 -0.19 C2.77 -0.38, 15.52 -0.78, 23.52 -0.75 C31.51 -0.71, 42.54 -0.28, 46.53 0.01" stroke="#087f5b" stroke-width="1" fill="none"></path></g><g transform="translate(522.7806360894656 210.00227172303937) rotate(0 22.721925004677416 0.5827661897955352)"><path d="M35.62 2.66 C38.3 3.58, 40.78 2.78, 45.81 -0.83 M35.07 3.61 C37.74 2.86, 40.73 1.78, 46.18 -0.4" stroke="#087f5b" stroke-width="1" fill="none"></path></g><g transform="translate(522.7806360894656 210.00227172303937) rotate(0 22.721925004677416 0.5827661897955352)"><path d="M36.07 -5.53 C38.67 -2.87, 41.04 -1.94, 45.81 -0.83 M35.52 -4.57 C38.05 -3.42, 40.94 -2.61, 46.18 -0.4" stroke="#087f5b" stroke-width="1" fill="none"></path></g></g><mask></mask><g stroke-linecap="round" transform="translate(567.4000854492188 166.60008239746094) rotate(0 78.80001831054688 42.39997863769531)"><path d="M21.2 0 M21.2 0 C47.99 -1.15, 72.21 -1.24, 136.4 0 M21.2 0 C50.56 -0.21, 78.43 -1.3, 136.4 0 M136.4 0 C150.08 -1.81, 157.85 8.26, 157.6 21.2 M136.4 0 C152.27 0.52, 159.13 5.3, 157.6 21.2 M157.6 21.2 C158.52 36.36, 157.52 52.6, 157.6 63.6 M157.6 21.2 C157.37 31.04, 156.89 43.28, 157.6 63.6 M157.6 63.6 C158.45 76.92, 152.29 83.76, 136.4 84.8 M157.6 63.6 C158.15 78.39, 149.19 84.47, 136.4 84.8 M136.4 84.8 C100.53 83.78, 65.02 85.73, 21.2 84.8 M136.4 84.8 C111.8 85.07, 86.63 85.45, 21.2 84.8 M21.2 84.8 C5.63 84.69, 1.18 78.94, 0 63.6 M21.2 84.8 C5.69 85.97, -1.08 75.66, 0 63.6 M0 63.6 C0.21 48.35, 0.46 35.41, 0 21.2 M0 63.6 C0.59 48.92, -0.66 33.33, 0 21.2 M0 21.2 C-0.23 6.37, 5.98 -1.36, 21.2 0 M0 21.2 C0.21 4.97, 5.97 2.28, 21.2 0" stroke="#364fc7" stroke-width="1" fill="none"></path></g><g transform="translate(583.4000854492188 172.00013732910156) rotate(0 61.5 37)"><text x="0" y="17.666666666666668" font-family="Virgil, Segoe UI Emoji" font-size="20px" fill="#364fc7" text-anchor="start" style="white-space: pre;" direction="ltr">Label: 'xw+b'</text><text x="0" y="42.333333333333336" font-family="Virgil, Segoe UI Emoji" font-size="20px" fill="#364fc7" text-anchor="start" style="white-space: pre;" direction="ltr">Data: 11.0</text><text x="0" y="67" font-family="Virgil, Segoe UI Emoji" font-size="20px" fill="#364fc7" text-anchor="start" style="white-space: pre;" direction="ltr">Grad: 1.0 </text></g><g stroke-linecap="round" transform="translate(277.60003662109375 102.00001525878906) rotate(0 78.80001831054688 42.39997863769531)"><path d="M21.2 0 M21.2 0 C53.51 -1.87, 81.7 0.4, 136.4 0 M21.2 0 C52.97 0.89, 84.88 0.36, 136.4 0 M136.4 0 C151.61 -1.55, 157.84 6.87, 157.6 21.2 M136.4 0 C152.75 -0.53, 159.26 6.89, 157.6 21.2 M157.6 21.2 C158.55 34.92, 159.44 45.67, 157.6 63.6 M157.6 21.2 C157.96 32.2, 157.16 44.78, 157.6 63.6 M157.6 63.6 C159.41 76.81, 151.46 86.29, 136.4 84.8 M157.6 63.6 C157.88 75.93, 151.57 83.99, 136.4 84.8 M136.4 84.8 C102.92 85.61, 73.86 81.83, 21.2 84.8 M136.4 84.8 C98.57 85.75, 63.03 84.96, 21.2 84.8 M21.2 84.8 C5.18 86.39, 1.49 77.76, 0 63.6 M21.2 84.8 C7.87 82.75, 0.79 76.26, 0 63.6 M0 63.6 C-1.54 51.68, -1 38.69, 0 21.2 M0 63.6 C0.22 50.35, 0.73 37.36, 0 21.2 M0 21.2 C-1.98 6.13, 8.34 -1.82, 21.2 0 M0 21.2 C-0.07 8.6, 7.95 -2, 21.2 0" stroke="#364fc7" stroke-width="1" fill="none"></path></g><g transform="translate(305.60009765625 109.00004577636719) rotate(0 50.5 37)"><text x="0" y="17.666666666666668" font-family="Virgil, Segoe UI Emoji" font-size="20px" fill="#364fc7" text-anchor="start" style="white-space: pre;" direction="ltr">Label: 'xw'</text><text x="0" y="42.333333333333336" font-family="Virgil, Segoe UI Emoji" font-size="20px" fill="#364fc7" text-anchor="start" style="white-space: pre;" direction="ltr">Data: 6.0</text><text x="0" y="67" font-family="Virgil, Segoe UI Emoji" font-size="20px" fill="#364fc7" text-anchor="start" style="white-space: pre;" direction="ltr">Grad: 1.0 </text></g><g stroke-linecap="round"><g transform="translate(261.53812471716446 143.52943706660994) rotate(0 7.963120504894448 0.6591201425243014)"><path d="M0.55 0.54 C1.7 0.69, 4.18 1.25, 6.85 0.96 C9.51 0.67, 14.94 -1.04, 16.55 -1.2 M-0.62 -0.23 C0.37 0.13, 3.08 2.51, 5.89 2.52 C8.7 2.53, 14.37 0.63, 16.25 -0.16" stroke="#087f5b" stroke-width="1" fill="none"></path></g><g transform="translate(261.53812471716446 143.52943706660994) rotate(0 7.963120504894448 0.6591201425243014)"><path d="M13.03 2.71 C13.85 2.18, 14.66 1.31, 16.49 0.11 M12.66 2.52 C14.04 1.86, 15.12 0.95, 16.4 -0.15" stroke="#087f5b" stroke-width="1" fill="none"></path></g><g transform="translate(261.53812471716446 143.52943706660994) rotate(0 7.963120504894448 0.6591201425243014)"><path d="M11.98 -0.16 C13.11 0.15, 14.23 0.13, 16.49 0.11 M11.6 -0.35 C13.29 -0.09, 14.71 -0.09, 16.4 -0.15" stroke="#087f5b" stroke-width="1" fill="none"></path></g></g><mask></mask><g stroke-linecap="round"><g transform="translate(437.53812471716446 140.12945842891457) rotate(0 22.692396919454836 13.628053738388843)"><path d="M0.58 0.84 C7.07 2.07, 32.14 2.29, 39.3 6.49 C46.45 10.69, 42.8 22.6, 43.51 26.04 M-0.57 0.23 C5.77 1.67, 30.82 3.12, 38.58 7.59 C46.33 12.06, 45.15 23.54, 45.95 27.03" stroke="#087f5b" stroke-width="1" fill="none"></path></g><g transform="translate(437.53812471716446 140.12945842891457) rotate(0 22.692396919454836 13.628053738388843)"><path d="M42.3 18.32 C42.27 20.23, 43.88 23.29, 46.35 27.33 M41.97 18.14 C42.24 20.29, 43.09 22.13, 45.87 26.59" stroke="#087f5b" stroke-width="1" fill="none"></path></g><g transform="translate(437.53812471716446 140.12945842891457) rotate(0 22.692396919454836 13.628053738388843)"><path d="M49.15 17.64 C46.84 19.81, 46.18 23.09, 46.35 27.33 M48.82 17.46 C47.69 19.7, 47.14 21.68, 45.87 26.59" stroke="#087f5b" stroke-width="1" fill="none"></path></g></g><mask></mask></svg>